<svg width="123" height="27"  viewBox="0 0 123 27" fill="none" xmlns="http://www.w3.org/2000/svg">
<path d="M13.4336 11.1953C13.4336 13.5391 12.4336 14.875 10.4336 15.2031L13.5977 22H10.9375L7.82031 15.2852H2.55859V22H0.15625V5.19531H9.35547C12.0742 5.19531 13.4336 6.55859 13.4336 9.28516V11.1953ZM2.55859 12.8828H9.22656C9.86719 12.8828 10.3281 12.7422 10.6094 12.4609C10.8906 12.1797 11.0312 11.7188 11.0312 11.0781V9.40234C11.0312 8.76172 10.8906 8.30078 10.6094 8.01953C10.3281 7.73828 9.86719 7.59766 9.22656 7.59766H2.55859V12.8828ZM27.7773 16.9375H19.5156V19.6914H27.7773V22H19.5156C19.2031 22 18.9062 21.9414 18.625 21.8242C18.3438 21.6992 18.0977 21.5352 17.8867 21.332C17.6836 21.1211 17.5195 20.875 17.3945 20.5938C17.2773 20.3125 17.2188 20.0117 17.2188 19.6914V11.8281C17.2188 11.5078 17.2773 11.207 17.3945 10.9258C17.5195 10.6445 17.6836 10.4023 17.8867 10.1992C18.0977 9.98828 18.3438 9.82422 18.625 9.70703C18.9062 9.58203 19.2031 9.51953 19.5156 9.51953H25.4688C25.7891 9.51953 26.0898 9.58203 26.3711 9.70703C26.6523 9.82422 26.8945 9.98828 27.0977 10.1992C27.3086 10.4023 27.4727 10.6445 27.5898 10.9258C27.7148 11.207 27.7773 11.5078 27.7773 11.8281V16.9375ZM19.5156 11.8281V14.6289H25.4688V11.8281H19.5156ZM42.6719 22H40.3633V11.8281H33.9297V22H31.6328V9.51953H33.9297V11.7227C33.9453 11.418 34.0156 11.1328 34.1406 10.8672C34.2656 10.5938 34.4297 10.3594 34.6328 10.1641C34.8438 9.96094 35.0859 9.80469 35.3594 9.69531C35.6328 9.57812 35.9258 9.51953 36.2383 9.51953H40.3633C40.6836 9.51953 40.9844 9.58203 41.2656 9.70703C41.5469 9.82422 41.7891 9.98828 41.9922 10.1992C42.2031 10.4023 42.3672 10.6445 42.4844 10.9258C42.6094 11.207 42.6719 11.5078 42.6719 11.8281V22ZM45.7891 9.51953H48.8359V5.67578H51.1445V9.51953H55.2461V11.8281H51.1445V19.6914H55.2461V22H51.1445C50.832 22 50.5352 21.9414 50.2539 21.8242C49.9727 21.6992 49.7266 21.5352 49.5156 21.332C49.3047 21.1211 49.1367 20.875 49.0117 20.5938C48.8945 20.3125 48.8359 20.0117 48.8359 19.6914V11.8281H45.7891V9.51953ZM80.9219 7.59766C80.9219 7.26953 80.9844 6.96094 81.1094 6.67188C81.2344 6.375 81.4062 6.12109 81.625 5.91016C81.8438 5.69141 82.0977 5.51953 82.3867 5.39453C82.6836 5.26172 82.9961 5.19531 83.3242 5.19531H92.4414C92.7695 5.19531 93.0781 5.26172 93.3672 5.39453C93.6641 5.51953 93.9219 5.69141 94.1406 5.91016C94.3594 6.12109 94.5312 6.375 94.6562 6.67188C94.7812 6.96094 94.8438 7.26953 94.8438 7.59766V9.76562H92.4414V7.59766H83.3242V19.5977H92.4414V17.4414H94.8438V19.5977C94.8438 19.9258 94.7812 20.2383 94.6562 20.5352C94.5312 20.8242 94.3594 21.0781 94.1406 21.2969C93.9219 21.5156 93.6641 21.6875 93.3672 21.8125C93.0781 21.9375 92.7695 22 92.4414 22H83.3242C82.9961 22 82.6836 21.9375 82.3867 21.8125C82.0977 21.6875 81.8438 21.5156 81.625 21.2969C81.4062 21.0781 81.2344 20.8242 81.1094 20.5352C80.9844 20.2383 80.9219 19.9258 80.9219 19.5977V7.59766ZM98.4531 16.5508C98.4531 16.2305 98.5117 15.9336 98.6289 15.6602C98.7539 15.3789 98.918 15.1328 99.1211 14.9219C99.332 14.7109 99.5781 14.5469 99.8594 14.4297C100.141 14.3047 100.438 14.2422 100.75 14.2422H106.703V11.8281H99.168V9.51953H106.703C107.023 9.51953 107.324 9.58203 107.605 9.70703C107.887 9.82422 108.129 9.98828 108.332 10.1992C108.543 10.4023 108.707 10.6445 108.824 10.9258C108.949 11.207 109.012 11.5078 109.012 11.8281V22H106.703V19.8906C106.68 20.1797 106.602 20.4531 106.469 20.7109C106.336 20.9688 106.164 21.1953 105.953 21.3906C105.75 21.5781 105.516 21.7266 105.25 21.8359C104.984 21.9453 104.703 22 104.406 22H100.75C100.438 22 100.141 21.9414 99.8594 21.8242C99.5781 21.6992 99.332 21.5352 99.1211 21.332C98.918 21.1211 98.7539 20.875 98.6289 20.5938C98.5117 20.3125 98.4531 20.0117 98.4531 19.6914V16.5508ZM100.75 19.6914H106.703V16.5508H100.75V19.6914ZM115.164 11.8281V22H112.867V9.51953H115.164V11.7227C115.18 11.418 115.25 11.1328 115.375 10.8672C115.5 10.5938 115.664 10.3594 115.867 10.1641C116.078 9.96094 116.32 9.80469 116.594 9.69531C116.867 9.57812 117.16 9.51953 117.473 9.51953H119.922C120.242 9.51953 120.539 9.58203 120.812 9.70703C121.094 9.82422 121.34 9.98828 121.551 10.1992C121.762 10.4023 121.926 10.6445 122.043 10.9258C122.168 11.207 122.23 11.5078 122.23 11.8281V13.9375H119.922V11.8281H115.164Z" fill="#89B9AD"/>
<path d="M57.375 9L60.4371 11.5517C60.6393 11.7202 60.8941 11.8125 61.1573 11.8125H73.8426C74.1059 11.8125 74.3607 11.7202 74.5629 11.5517L77.625 9M61.3125 15.75H61.3238M73.6875 15.75H73.6988M63.1807 5.0625H71.8193C72.6267 5.0625 73.3723 5.49514 73.7728 6.19618L77.0321 11.8999C77.4206 12.5799 77.625 13.3494 77.625 14.1326V20.8125C77.625 21.4338 77.1213 21.9375 76.5 21.9375H75.375C74.7537 21.9375 74.25 21.4338 74.25 20.8125V19.6875H60.75V20.8125C60.75 21.4338 60.2463 21.9375 59.625 21.9375H58.5C57.8787 21.9375 57.375 21.4338 57.375 20.8125V14.1326C57.375 13.3494 57.5794 12.5799 57.9679 11.8999L61.2272 6.19618C61.6278 5.49514 62.3733 5.0625 63.1807 5.0625ZM61.875 15.75C61.875 16.0606 61.6232 16.3125 61.3125 16.3125C61.0018 16.3125 60.75 16.0606 60.75 15.75C60.75 15.4394 61.0018 15.1875 61.3125 15.1875C61.6232 15.1875 61.875 15.4394 61.875 15.75ZM74.25 15.75C74.25 16.0606 73.9981 16.3125 73.6875 16.3125C73.3769 16.3125 73.125 16.0606 73.125 15.75C73.125 15.4394 73.3769 15.1875 73.6875 15.1875C73.9981 15.1875 74.25 15.4394 74.25 15.75Z" stroke="#89B9AD" stroke-width="2" stroke-linecap="round" stroke-linejoin="round"/>
</svg>
